<?xml version="1.0" encoding="UTF-8" standalone="no"?>
<svg width="14px" height="12px" viewBox="0 0 14 12" version="1.1" xmlns="http://www.w3.org/2000/svg" xmlns:xlink="http://www.w3.org/1999/xlink">
    <!-- Generator: Sketch 47.1 (45422) - http://www.bohemiancoding.com/sketch -->
    <title>Shape</title>
    <desc>Created with Sketch.</desc>
    <defs></defs>
    <g id="Page-1" stroke="none" stroke-width="1" fill="none" fill-rule="evenodd">
        <g id="Mobile" transform="translate(-144.000000, -3513.000000)" fill="#9B9B9B">
            <path d="M157.007726,3513.96879 C156.346274,3513.32287 155.432247,3513 154.265452,3513 C153.942589,3513 153.61311,3513.056 153.277205,3513.16791 C152.941205,3513.27991 152.628699,3513.43103 152.339781,3513.62109 C152.050671,3513.81114 151.802123,3513.9896 151.593658,3514.15625 C151.385384,3514.32291 151.187466,3514.50002 151,3514.68749 C150.812438,3514.50002 150.614521,3514.32291 150.406247,3514.15625 C150.197877,3513.9896 149.949233,3513.81124 149.660123,3513.62109 C149.371014,3513.43093 149.058507,3513.27991 148.722603,3513.16791 C148.386699,3513.056 148.057219,3513 147.734356,3513 C146.567658,3513 145.65363,3513.32296 144.992178,3513.96879 C144.330726,3514.61461 144,3515.51043 144,3516.65623 C144,3517.00518 144.061274,3517.36467 144.18363,3517.73433 C144.305986,3518.10409 144.445411,3518.41928 144.601616,3518.67963 C144.757822,3518.93997 144.934932,3519.19389 145.132849,3519.44129 C145.330767,3519.68869 145.47537,3519.85928 145.566466,3519.95297 C145.657562,3520.04675 145.729192,3520.11445 145.78126,3520.15616 L150.656233,3524.85933 C150.750014,3524.95311 150.864603,3525 151,3525 C151.135397,3525 151.249986,3524.95311 151.343767,3524.85933 L156.210973,3520.17169 C157.403658,3518.9791 158,3517.80721 158,3516.65613 C158,3515.51024 157.669274,3514.61452 157.007726,3513.96879 L157.007726,3513.96879 Z M155.531205,3519.43736 L151,3523.80453 L146.461027,3519.4295 C145.487068,3518.45572 145.000137,3517.53114 145.000137,3516.65613 C145.000137,3516.23431 145.056137,3515.86187 145.168041,3515.539 C145.280041,3515.21614 145.423301,3514.95953 145.597726,3514.76948 C145.772247,3514.57933 145.984452,3514.42446 146.234438,3514.3046 C146.484521,3514.18483 146.729329,3514.10409 146.968863,3514.06247 C147.208397,3514.02086 147.463562,3514.00005 147.734452,3514.00005 C148.005247,3514.00005 148.296945,3514.0664 148.609452,3514.19921 C148.921863,3514.33202 149.20963,3514.49868 149.472658,3514.69919 C149.735685,3514.89979 149.960932,3515.08726 150.148493,3515.26169 C150.335959,3515.4363 150.492164,3515.59635 150.617205,3515.7422 C150.71089,3515.85679 150.838616,3515.91413 151,3515.91413 C151.161479,3515.91413 151.289014,3515.85679 151.382795,3515.7422 C151.507836,3515.59635 151.664137,3515.43621 151.851603,3515.26169 C152.039068,3515.08726 152.264411,3514.89989 152.527342,3514.69919 C152.79037,3514.49868 153.078137,3514.33202 153.39074,3514.19921 C153.703151,3514.0664 153.994945,3514.00005 154.26574,3514.00005 C154.536534,3514.00005 154.791603,3514.02086 155.031233,3514.06247 C155.270863,3514.10409 155.515671,3514.18483 155.765658,3514.3046 C156.015644,3514.42446 156.227849,3514.57942 156.40237,3514.76948 C156.576795,3514.95953 156.720055,3515.21614 156.832055,3515.539 C156.943863,3515.86187 156.999863,3516.23431 156.999863,3516.65613 C156.999863,3517.53114 156.510438,3518.45831 155.531205,3519.43736 L155.531205,3519.43736 Z" id="Shape"></path>
        </g>
    </g>
</svg>